<svg xmlns="http://www.w3.org/2000/svg" width="1240" height="610" viewBox="0 0 1240 610" font-family="IBM Plex Sans KR, Pretendard, Noto Sans KR, Apple SD Gothic Neo, sans-serif">
<defs><marker id="arr" markerWidth="8" markerHeight="8" refX="6" refY="4" orient="auto"><path d="M0,0 L8,4 L0,8 z" fill="#4b5563"/></marker></defs>
<title>기업별 플라이휠 유형 지도</title>
<rect width="1240" height="610" fill="#ffffff"/>
<text x="24" y="32" font-size="17" fill="#111827" font-weight="700">기업별 플라이휠 유형 지도 — 데이터 원천(가로) × 공개도(세로)</text>
<text x="24" y="52" font-size="11.5" fill="#6b7280">각 칸의 수치는 각 사 공개 주장(📰⚠️, 본문 4.6절). 위치는 4장의 분류에 따른 자체 배치.</text>
<rect x="130" y="90.0" width="1086" height="146.66666666666666" rx="0" fill="#fafafa" stroke="#e5e7eb" stroke-width="1"/>
<text x="122" y="160.33333333333331" font-size="11" fill="#6b7280" font-weight="700" text-anchor="end">오픈소스 · 공개</text>
<text x="122" y="174.33333333333331" font-size="11" fill="#6b7280" font-weight="700" text-anchor="end">데이터</text>
<rect x="130" y="236.66666666666666" width="1086" height="146.66666666666666" rx="0" fill="#fff" stroke="#e5e7eb" stroke-width="1"/>
<text x="122" y="307.0" font-size="11" fill="#6b7280" font-weight="700" text-anchor="end">연구 · 기술보고서 ·</text>
<text x="122" y="321.0" font-size="11" fill="#6b7280" font-weight="700" text-anchor="end">일부 공개</text>
<rect x="130" y="383.3333333333333" width="1086" height="146.66666666666666" rx="0" fill="#fafafa" stroke="#e5e7eb" stroke-width="1"/>
<text x="122" y="460.66666666666663" font-size="11" fill="#6b7280" font-weight="700" text-anchor="end">폐쇄</text>
<line x1="130.0" y1="90" x2="130.0" y2="530" stroke="#e5e7eb" stroke-width="1"/>
<text x="238.6" y="552" font-size="12.5" fill="#111827" font-weight="700" text-anchor="middle">플릿형</text>
<text x="238.6" y="568" font-size="10.5" fill="#6b7280" text-anchor="middle">양산차가 데이터를 만든다</text>
<line x1="347.2" y1="90" x2="347.2" y2="530" stroke="#e5e7eb" stroke-width="1"/>
<text x="455.79999999999995" y="552" font-size="12.5" fill="#111827" font-weight="700" text-anchor="middle">로보택시형</text>
<text x="455.79999999999995" y="568" font-size="10.5" fill="#6b7280" text-anchor="middle">적은 차·많은 센서·시뮬</text>
<line x1="564.4" y1="90" x2="564.4" y2="530" stroke="#e5e7eb" stroke-width="1"/>
<text x="673.0" y="552" font-size="12.5" fill="#111827" font-weight="700" text-anchor="middle">공급자형</text>
<text x="673.0" y="568" font-size="10.5" fill="#6b7280" text-anchor="middle">남의 차에서 데이터를 받는다</text>
<line x1="781.5999999999999" y1="90" x2="781.5999999999999" y2="530" stroke="#e5e7eb" stroke-width="1"/>
<text x="890.1999999999999" y="552" font-size="12.5" fill="#111827" font-weight="700" text-anchor="middle">OEM 자체형</text>
<text x="890.1999999999999" y="568" font-size="10.5" fill="#6b7280" text-anchor="middle">내 차·내 데이터·내 모델</text>
<line x1="998.8" y1="90" x2="998.8" y2="530" stroke="#e5e7eb" stroke-width="1"/>
<text x="1107.3999999999999" y="552" font-size="12.5" fill="#111827" font-weight="700" text-anchor="middle">툴체인형</text>
<text x="1107.3999999999999" y="568" font-size="10.5" fill="#6b7280" text-anchor="middle">플라이휠을 만들어 판다</text>
<line x1="1216" y1="90" x2="1216" y2="530" stroke="#e5e7eb" stroke-width="1"/>
<text x="673.0" y="592" font-size="12" fill="#374151" font-weight="700" text-anchor="middle">데이터 원천 →</text>
<text x="40" y="80" font-size="12" fill="#374151" font-weight="700">공개도 ↑</text>
<rect x="138.0" y="391.3333333333333" width="201.2" height="47.73999999999995" rx="6" fill="#fff" stroke="#b91c1c" stroke-width="1.2"/>
<text x="145.0" y="411.4583333333333" font-size="12.5" fill="#b91c1c" font-weight="700">Tesla</text>
<text x="145.0" y="428.6083333333333" font-size="10.5" fill="#374151">FSD 140억 마일 · 섀도 모드 · Cortex</text>
<rect x="138.0" y="98.0" width="201.2" height="62.23000000000002" rx="6" fill="#fff" stroke="#b91c1c" stroke-width="1.2"/>
<text x="145.0" y="118.125" font-size="12.5" fill="#b91c1c" font-weight="700">comma.ai</text>
<text x="145.0" y="135.275" font-size="10.5" fill="#374151">3억 마일 · 오픈소스 · 학습된</text>
<text x="145.0" y="149.76500000000001" font-size="10.5" fill="#374151">시뮬레이터</text>
<rect x="355.2" y="244.66666666666666" width="201.2" height="62.229999999999876" rx="6" fill="#fff" stroke="#2563eb" stroke-width="1.2"/>
<text x="362.2" y="264.79166666666663" font-size="12.5" fill="#2563eb" font-weight="700">Waymo</text>
<text x="362.2" y="281.9416666666666" font-size="10.5" fill="#374151">무인 2.2억 마일 · Open Dataset ·</text>
<text x="362.2" y="296.43166666666656" font-size="10.5" fill="#374151">World Model</text>
<rect x="355.2" y="391.3333333333333" width="201.2" height="47.73999999999995" rx="6" fill="#fff" stroke="#2563eb" stroke-width="1.2"/>
<text x="362.2" y="411.4583333333333" font-size="12.5" fill="#2563eb" font-weight="700">Baidu Apollo Go</text>
<text x="362.2" y="428.6083333333333" font-size="10.5" fill="#374151">2,300만 회 탑승 · ADFM</text>
<rect x="572.4" y="391.3333333333333" width="201.2" height="47.73999999999995" rx="6" fill="#fff" stroke="#059669" stroke-width="1.2"/>
<text x="579.4" y="411.4583333333333" font-size="12.5" fill="#059669" font-weight="700">Mobileye</text>
<text x="579.4" y="428.6083333333333" font-size="10.5" fill="#374151">REM 800만 대 · km당 10KB</text>
<rect x="572.4" y="244.66666666666666" width="201.2" height="47.739999999999924" rx="6" fill="#fff" stroke="#059669" stroke-width="1.2"/>
<text x="579.4" y="264.79166666666663" font-size="12.5" fill="#059669" font-weight="700">Wayve</text>
<text x="579.4" y="281.9416666666666" font-size="10.5" fill="#374151">506개 도시 · GAIA-3/4 연구 공개</text>
<rect x="572.4" y="457.3333333333333" width="201.2" height="47.73999999999995" rx="6" fill="#fff" stroke="#059669" stroke-width="1.2"/>
<text x="579.4" y="477.4583333333333" font-size="12.5" fill="#059669" font-weight="700">Momenta</text>
<text x="579.4" y="494.6083333333333" font-size="10.5" fill="#374151">100만 대 · 120억 km · R7</text>
<rect x="789.5999999999999" y="391.3333333333333" width="201.2" height="47.73999999999995" rx="6" fill="#fff" stroke="#d97706" stroke-width="1.2"/>
<text x="796.5999999999999" y="411.4583333333333" font-size="12.5" fill="#d97706" font-weight="700">현대차 · 42dot</text>
<text x="796.5999999999999" y="428.6083333333333" font-size="10.5" fill="#374151">Atria AI · 모비스 시뮬 60대</text>
<rect x="789.5999999999999" y="244.66666666666666" width="201.2" height="47.739999999999924" rx="6" fill="#fff" stroke="#d97706" stroke-width="1.2"/>
<text x="796.5999999999999" y="264.79166666666663" font-size="12.5" fill="#d97706" font-weight="700">XPeng</text>
<text x="796.5999999999999" y="281.9416666666666" font-size="10.5" fill="#374151">1억 클립 · X-World 기술보고서</text>
<rect x="1006.8" y="98.0" width="201.2" height="47.74000000000001" rx="6" fill="#fff" stroke="#7c3aed" stroke-width="1.2"/>
<text x="1013.8" y="118.125" font-size="12.5" fill="#7c3aed" font-weight="700">NVIDIA</text>
<text x="1013.8" y="135.275" font-size="10.5" fill="#374151">Cosmos · NuRec · AlpaSim 오픈소스</text>
<rect x="1006.8" y="164.0" width="201.2" height="47.74000000000001" rx="6" fill="#fff" stroke="#7c3aed" stroke-width="1.2"/>
<text x="1013.8" y="184.125" font-size="12.5" fill="#7c3aed" font-weight="700">TIER IV</text>
<text x="1013.8" y="201.275" font-size="10.5" fill="#374151">Autoware · Co-MLOps 공유</text>
<rect x="1006.8" y="391.3333333333333" width="201.2" height="47.73999999999995" rx="6" fill="#fff" stroke="#7c3aed" stroke-width="1.2"/>
<text x="1013.8" y="411.4583333333333" font-size="12.5" fill="#7c3aed" font-weight="700">Applied Intuition</text>
<text x="1013.8" y="428.6083333333333" font-size="10.5" fill="#374151">OEM 18/20 고객 · 상용</text>
</svg>
